# xmcd
#
# Track frame offsets: 
#        150
#        16778
#        36018
#        51002
#        73016
#        88379
#        101995
#        121569
#        139013
#        158826
#
# Disc length: 2569 seconds
#
# Revision: 1
# Processed by: cddbd v1.5.2PL0 Copyright (c) Steve Scherf et al.
# Submitted via: ExactAudioCopy v0.95a4
#
DISCID=7e0a070a
DTITLE=Chantel McGregor - Lose Control
DYEAR=2015
DGENRE=Blues
TTITLE0=Take The Power
TTITLE1=Your Fever
TTITLE2=Burn Your Anger
TTITLE3=Anaesthetize
TTITLE4=Southern Belle
TTITLE5=Lose Control
TTITLE6=Home
TTITLE7=Killing Time
TTITLE8=Eternal Dream
TTITLE9=Walk On Land
EXTD=Year: 2015\n\n\n\n\n\n                                           
EXTD=  www.chantelmcgregor.com
EXTT0=
EXTT1=
EXTT2=
EXTT3=
EXTT4=
EXTT5=
EXTT6=
EXTT7=
EXTT8=
EXTT9=
PLAYORDER=
